<?xml version="1.0" encoding="UTF-8" standalone="no"?>
<svg
   xmlns:dc="http://purl.org/dc/elements/1.1/"
   xmlns:cc="http://creativecommons.org/ns#"
   xmlns:rdf="http://www.w3.org/1999/02/22-rdf-syntax-ns#"
   xmlns:svg="http://www.w3.org/2000/svg"
   xmlns="http://www.w3.org/2000/svg"
   xmlns:sodipodi="http://sodipodi.sourceforge.net/DTD/sodipodi-0.dtd"
   xmlns:inkscape="http://www.inkscape.org/namespaces/inkscape"
   aria-hidden="true"
   data-prefix="far"
   data-icon="image"
   class="svg-inline--fa fa-image fa-w-16"
   role="img"
   viewBox="0 0 768 768"
   version="1.1"
   id="svg4"
   sodipodi:docname="placeholder.svg"
   width="768"
   height="768"
   inkscape:version="0.92.2 2405546, 2018-03-11">
  <metadata
     id="metadata10">
    <rdf:RDF>
      <cc:Work
         rdf:about="">
        <dc:format>image/svg+xml</dc:format>
        <dc:type
           rdf:resource="http://purl.org/dc/dcmitype/StillImage" />
        <dc:title></dc:title>
      </cc:Work>
    </rdf:RDF>
  </metadata>
  <defs
     id="defs8" />
  <sodipodi:namedview
     pagecolor="#ffffff"
     bordercolor="#666666"
     borderopacity="1"
     objecttolerance="10"
     gridtolerance="10"
     guidetolerance="10"
     inkscape:pageopacity="0"
     inkscape:pageshadow="2"
     inkscape:window-width="1596"
     inkscape:window-height="861"
     id="namedview6"
     showgrid="false"
     inkscape:zoom="0.65186406"
     inkscape:cx="236.83092"
     inkscape:cy="286.90986"
     inkscape:window-x="0"
     inkscape:window-y="18"
     inkscape:window-maximized="0"
     inkscape:current-layer="svg4" />
  <path
     d="M 592,192 H 176 c -26.51,0 -48,21.49 -48,48 v 288 c 0,26.51 21.49,48 48,48 h 416 c 26.51,0 48,-21.49 48,-48 V 240 c 0,-26.51 -21.49,-48 -48,-48 z m -6,336 H 182 a 6,6 0 0 1 -6,-6 V 246 a 6,6 0 0 1 6,-6 h 404 a 6,6 0 0 1 6,6 v 276 a 6,6 0 0 1 -6,6 z M 256,280 c -22.091,0 -40,17.909 -40,40 0,22.091 17.909,40 40,40 22.091,0 40,-17.909 40,-40 0,-22.091 -17.909,-40 -40,-40 z m -32,200 h 320 v -80 l -87.515,-87.515 c -4.686,-4.686 -12.284,-4.686 -16.971,0 L 320,432 280.485,392.485 c -4.686,-4.686 -12.284,-4.686 -16.971,0 L 224,432 Z"
     id="path2"
     inkscape:connector-curvature="0"
     style="fill:#808080" />
</svg>
